<?xml version="1.0" encoding="UTF-8" standalone="no"?>
<svg
   width="147"
   height="120"
   viewBox="0 0 147 120"
   version="1.1"
   id="svg9"
   xmlns="http://www.w3.org/2000/svg"
   xmlns:svg="http://www.w3.org/2000/svg">
  <defs
     id="defs9" />
  <g
     fill="none"
     fill-rule="nonzero"
     id="g9">
    <path
       fill="#04adaa"
       d="M 15.801,38.964 C 5.77,42.552 5.607,51.103 6.309,55.084 c 0.014,0.11 0.13,0.292 0.104,0.311 C 6.039,55.615 -11.269,26.058 36.603,16.719 39.427,8.131 37.613,0 37.613,0 -27.527,38.818 11.554,63.44 12.34,62.688 c 0.005,-0.022 -0.09,-0.083 -0.205,-0.26 -2.213,-3.277 -8.224,-12.531 3.602,-22.59 0.39,-0.325 1.089,-0.852 1.92,-1.46 h -0.012 c -0.73,0.195 -1.393,0.398 -1.844,0.586 z"
       id="path1" />
    <path
       fill="#db1e49"
       d="m 33.089,24.809 c 0.044,0 0.073,0.007 0.113,0.007 4.831,0.293 10.493,1.469 17.106,3.715 7.163,-6.437 9.763,-14.158 9.763,-14.158 -9.15,0.36 -16.863,1.068 -23.4,2.333 -0.007,0 -0.036,0.014 -0.067,0.014 -0.044,0.134 -0.087,0.27 -0.13,0.398 -0.85,2.483 -1.775,5.172 -3.385,7.69 z"
       id="path2" />
    <path
       fill="#bf2b2b"
       d="m 6.412,55.395 c 0.029,-0.02 -0.088,-0.2 -0.102,-0.312 -0.703,-3.98 -0.54,-12.53 9.49,-16.12 0.453,-0.186 1.115,-0.39 1.844,-0.585 C 8.231,38.204 5.72,43.758 5.223,46.807 5.184,47.105 5.176,47.186 5.12,47.163 4.61,46.879 4.61,23.161 33.089,24.809 c 1.61,-2.52 2.535,-5.208 3.386,-7.691 L 36.604,16.72 C -11.269,26.057 6.039,55.614 6.412,55.395 Z"
       id="path3" />
    <path
       fill="#ffd500"
       d="m 50.482,28.573 c -0.048,-0.013 -0.108,-0.034 -0.174,-0.042 -0.017,0.008 -0.023,0.008 -0.039,0.029 -4.685,4.194 -11.06,6.44 -20.562,7.784 -2.987,0.418 -4.709,0.638 -7.166,1.012 a 47.793,47.793 0 0 0 -4.877,1.021 h -0.008 c 0.201,0 0.392,0.003 0.595,0.014 1.077,0.045 2.25,0.177 3.5,0.413 3.606,0.663 8.931,2.207 13.575,3.941 23.116,8.709 38.003,-3.843 38.003,-3.843 -8.662,-4.731 -16.234,-8.07 -22.847,-10.329 z"
       id="path4" />
    <path
       fill="#f7a709"
       d="M 17.644,38.493 H 17.89 Z M 33.089,24.809 c -0.058,0.104 -0.125,0.2 -0.192,0.303 -2.053,3.136 -5.792,6.545 -10.159,9.632 -1.198,0.846 -3.403,2.393 -5.074,3.634 a 47.895,47.895 0 0 1 4.877,-1.022 c 2.457,-0.375 4.18,-0.594 7.166,-1.012 9.502,-1.345 15.877,-3.59 20.562,-7.785 0.016,-0.02 0.022,-0.02 0.039,-0.028 -6.613,-2.246 -12.275,-3.422 -17.106,-3.715 -0.04,0 -0.07,-0.007 -0.113,-0.007 z"
       id="path5" />
    <path
       fill="#fdc400"
       d="m 32.898,25.112 c 0.066,-0.102 0.133,-0.2 0.191,-0.304 C 4.611,23.161 4.611,46.88 5.121,47.163 5.176,47.185 5.185,47.104 5.223,46.806 5.718,43.758 8.231,38.203 17.645,38.377 h 0.02 c 1.67,-1.24 3.875,-2.786 5.074,-3.634 4.366,-3.086 8.106,-6.495 10.159,-9.631 z"
       id="path6" />
    <path
       fill="#04adaa"
       d="m 134.98,80.237 a 6.184,6.184 0 0 1 -1.175,1.073 c -0.43,0.3 -0.983,0.45 -1.66,0.45 a 3.24,3.24 0 0 1 -1.185,-0.214 2.953,2.953 0 0 1 -0.953,-0.59 2.791,2.791 0 0 1 -0.634,-0.88 2.555,2.555 0 0 1 -0.233,-1.084 c 0,-0.471 0.095,-0.915 0.286,-1.33 0.19,-0.415 0.511,-0.78 0.962,-1.094 0.452,-0.315 1.051,-0.572 1.799,-0.773 0.747,-0.2 1.671,-0.314 2.772,-0.343 v -0.193 c 0,-0.53 -0.138,-0.915 -0.413,-1.158 -0.275,-0.244 -0.716,-0.365 -1.322,-0.365 a 5.07,5.07 0 0 0 -1.62,0.29 c -0.57,0.192 -1.145,0.432 -1.724,0.718 l -0.676,-2.425 c 0.521,-0.285 1.174,-0.554 1.957,-0.804 0.782,-0.25 1.64,-0.376 2.57,-0.376 0.847,0 1.56,0.097 2.137,0.29 0.579,0.193 1.044,0.476 1.397,0.848 0.353,0.372 0.603,0.826 0.751,1.362 0.148,0.537 0.215,1.155 0.201,1.856 l -0.02,2.96 c 0,0.344 0.048,0.559 0.147,0.645 0.099,0.085 0.318,0.143 0.656,0.171 l -0.318,2.36 c -1.072,0.143 -1.89,0.083 -2.454,-0.182 -0.564,-0.264 -0.96,-0.669 -1.185,-1.212 z m -0.021,-3.24 c -1.016,0.114 -1.728,0.283 -2.137,0.504 -0.41,0.222 -0.614,0.554 -0.614,0.998 0,0.33 0.113,0.59 0.338,0.783 0.226,0.193 0.522,0.29 0.89,0.29 0.324,0 0.617,-0.061 0.877,-0.183 0.261,-0.121 0.476,-0.282 0.646,-0.482 z m -10.6,-2.961 a 2.3,2.3 0 0 0 -0.65,-0.311 2.786,2.786 0 0 0 -0.836,-0.118 c -0.684,0 -1.216,0.257 -1.6,0.772 -0.385,0.515 -0.575,1.188 -0.575,2.017 0,0.859 0.187,1.524 0.564,1.996 0.377,0.472 0.864,0.708 1.463,0.708 0.363,0 0.674,-0.061 0.931,-0.182 0.258,-0.122 0.494,-0.29 0.702,-0.505 v -4.377 z m 0,-6.78 3.279,-0.408 v 14.59 h -3.28 l 0.021,-1.03 c -0.31,0.33 -0.69,0.633 -1.142,0.913 -0.451,0.278 -0.988,0.418 -1.608,0.418 a 3.886,3.886 0 0 1 -1.683,-0.365 3.85,3.85 0 0 1 -1.332,-1.04 4.991,4.991 0 0 1 -0.879,-1.631 c -0.211,-0.637 -0.317,-1.349 -0.317,-2.135 0,-0.83 0.134,-1.577 0.402,-2.242 a 5.237,5.237 0 0 1 1.076,-1.706 c 0.447,-0.472 0.97,-0.833 1.558,-1.084 a 4.775,4.775 0 0 1 1.88,-0.375 c 0.702,0 1.379,0.114 2.024,0.343 V 67.256 Z M 103.77,81.48 100.998,71.46 h 3.3 l 1.334,6.63 1.672,-6.63 h 3.406 l 1.693,6.523 1.142,-6.523 h 3.386 l -2.793,10.02 h -3.301 l -1.883,-6.565 -1.883,6.565 z m -6.453,-5.031 c 0,-0.84 -0.173,-1.513 -0.519,-2.02 -0.345,-0.505 -0.856,-0.759 -1.534,-0.759 -0.677,0 -1.184,0.254 -1.523,0.758 -0.339,0.508 -0.508,1.188 -0.508,2.042 0,0.855 0.173,1.527 0.518,2.02 0.346,0.49 0.857,0.737 1.535,0.737 0.676,0 1.184,-0.25 1.523,-0.747 0.339,-0.5 0.508,-1.177 0.508,-2.031 z m 3.237,-0.032 c 0,0.83 -0.141,1.577 -0.423,2.242 a 4.988,4.988 0 0 1 -1.143,1.684 4.92,4.92 0 0 1 -1.693,1.052 5.864,5.864 0 0 1 -2.073,0.364 6.094,6.094 0 0 1 -2.063,-0.343 4.551,4.551 0 0 1 -1.66,-1.019 4.794,4.794 0 0 1 -1.101,-1.663 c -0.268,-0.658 -0.402,-1.409 -0.402,-2.253 0,-0.844 0.137,-1.598 0.413,-2.264 a 4.788,4.788 0 0 1 1.142,-1.684 4.908,4.908 0 0 1 1.703,-1.04 6.087,6.087 0 0 1 2.095,-0.355 c 0.748,0 1.439,0.119 2.073,0.354 0.636,0.237 1.186,0.58 1.65,1.03 0.466,0.45 0.83,1.002 1.09,1.653 0.262,0.65 0.392,1.398 0.392,2.242 z m -19.74,5.686 A 3.13,3.13 0 0 1 79.628,81.448 1.462,1.462 0 0 1 79.099,80.3 c 0,-0.472 0.19,-0.915 0.572,-1.33 0.38,-0.415 0.867,-0.708 1.46,-0.88 a 3.643,3.643 0 0 1 -1.439,-1.223 c -0.367,-0.53 -0.55,-1.151 -0.55,-1.866 0,-0.544 0.106,-1.052 0.317,-1.524 0.212,-0.472 0.518,-0.88 0.92,-1.223 a 4.51,4.51 0 0 1 1.471,-0.815 c 0.578,-0.2 1.234,-0.3 1.968,-0.3 0.592,0 1.15,0.074 1.671,0.225 0.522,0.15 0.966,0.31 1.333,0.482 l 2.772,-0.236 0.148,2.683 -1.904,-0.3 c 0.085,0.1 0.151,0.264 0.2,0.493 0.05,0.229 0.075,0.429 0.075,0.6 0,0.501 -0.106,0.973 -0.317,1.417 a 3.404,3.404 0 0 1 -0.89,1.147 c -0.38,0.322 -0.835,0.576 -1.364,0.762 -0.529,0.186 -1.11,0.28 -1.745,0.28 -0.226,0 -0.441,-0.015 -0.646,-0.044 a 18.48,18.48 0 0 1 -0.666,-0.107 1.5,1.5 0 0 0 -0.392,0.29 0.603,0.603 0 0 0 -0.18,0.44 c 0,0.228 0.138,0.39 0.413,0.482 0.275,0.093 0.737,0.14 1.386,0.14 h 1.164 a 11.3,11.3 0 0 1 1.851,0.139 c 0.557,0.093 1.037,0.25 1.439,0.472 0.402,0.222 0.712,0.512 0.93,0.869 0.22,0.358 0.329,0.801 0.329,1.33 0,0.63 -0.17,1.195 -0.508,1.695 -0.338,0.501 -0.794,0.93 -1.365,1.288 a 7.018,7.018 0 0 1 -1.967,0.826 c -0.741,0.193 -1.513,0.29 -2.317,0.29 -0.663,0 -1.287,-0.054 -1.873,-0.162 a 5.714,5.714 0 0 1 -1.523,-0.482 2.966,2.966 0 0 1 -1.027,-0.805 1.798,1.798 0 0 1 -0.38,-1.148 c 0,-0.5 0.193,-0.95 0.582,-1.351 0.388,-0.4 0.976,-0.651 1.766,-0.751 z m 1.29,0.364 a 1.74,1.74 0 0 0 -0.56,0.44 0.991,0.991 0 0 0 -0.223,0.654 c 0,0.387 0.222,0.701 0.666,0.945 0.445,0.243 1.048,0.365 1.81,0.365 0.394,0 0.761,-0.03 1.1,-0.086 a 3.35,3.35 0 0 0 0.888,-0.268 c 0.255,-0.122 0.452,-0.265 0.593,-0.43 a 0.848,0.848 0 0 0 0.212,-0.568 c 0,-0.4 -0.208,-0.665 -0.625,-0.794 -0.416,-0.129 -1.054,-0.193 -1.914,-0.193 a 31.164,31.164 0 0 1 -1.947,-0.065 z m 0.148,-7.445 c 0,0.53 0.127,0.955 0.38,1.277 0.255,0.321 0.643,0.482 1.165,0.482 0.493,0 0.857,-0.168 1.09,-0.504 0.232,-0.336 0.348,-0.783 0.348,-1.341 0,-0.529 -0.123,-0.955 -0.37,-1.276 -0.247,-0.322 -0.624,-0.483 -1.132,-0.483 -0.465,0 -0.829,0.168 -1.09,0.504 -0.26,0.336 -0.391,0.783 -0.391,1.341 z m -7.13,0.493 v -0.192 c 0,-0.602 -0.124,-1.07 -0.37,-1.406 -0.247,-0.336 -0.625,-0.504 -1.132,-0.504 -0.565,0 -1.01,0.21 -1.333,0.633 a 2.85,2.85 0 0 0 -0.572,1.491 z m -3.428,1.717 c 0.056,0.672 0.303,1.19 0.74,1.556 0.438,0.364 1.059,0.547 1.863,0.547 0.536,0 1.082,-0.09 1.64,-0.268 a 8.021,8.021 0 0 0 1.576,-0.698 l 0.317,2.554 c -0.494,0.257 -1.076,0.457 -1.745,0.6 A 9.952,9.952 0 0 1 74,81.74 c -0.832,0 -1.587,-0.115 -2.264,-0.343 a 4.764,4.764 0 0 1 -1.735,-1.009 c -0.48,-0.443 -0.85,-0.99 -1.11,-1.641 -0.262,-0.651 -0.392,-1.392 -0.392,-2.221 0,-0.815 0.13,-1.556 0.391,-2.22 a 4.801,4.801 0 0 1 1.1,-1.696 4.97,4.97 0 0 1 1.694,-1.084 5.827,5.827 0 0 1 2.147,-0.386 c 1.396,0 2.465,0.386 3.206,1.16 0.74,0.771 1.11,1.78 1.11,3.025 0,0.271 -0.017,0.579 -0.052,0.922 a 4.095,4.095 0 0 1 -0.16,0.837 l -6.241,0.107 v 0.043 z m -11.13,1.63 c 0.406,0.273 0.9,0.408 1.485,0.408 0.699,0 1.234,-0.254 1.612,-0.761 0.377,-0.508 0.564,-1.177 0.564,-2.006 0,-0.859 -0.17,-1.527 -0.512,-2.006 -0.341,-0.48 -0.85,-0.72 -1.516,-0.72 -0.363,0 -0.67,0.065 -0.92,0.194 -0.254,0.129 -0.49,0.293 -0.713,0.493 v 4.399 z m 0,-6.372 c 0.31,-0.329 0.685,-0.636 1.129,-0.923 0.444,-0.286 0.98,-0.429 1.615,-0.429 0.603,0 1.164,0.122 1.675,0.365 0.515,0.243 0.956,0.59 1.33,1.04 0.373,0.451 0.663,0.995 0.874,1.632 0.212,0.636 0.317,1.355 0.317,2.156 0,0.83 -0.13,1.577 -0.391,2.242 a 5.095,5.095 0 0 1 -1.065,1.706 4.595,4.595 0 0 1 -1.57,1.083 c -0.599,0.25 -1.226,0.376 -1.89,0.376 a 6.52,6.52 0 0 1 -1.022,-0.086 6.656,6.656 0 0 1 -1.002,-0.236 v 4.463 H 57.285 V 71.633 l 3.28,-0.408 v 1.266 z m -8.505,8.948 v -5.88 c 0,-0.6 -0.12,-1.019 -0.356,-1.255 -0.24,-0.236 -0.56,-0.354 -0.967,-0.354 -0.324,0 -0.617,0.065 -0.881,0.194 a 3.076,3.076 0 0 0 -0.695,0.45 v 6.845 h -3.28 v -5.88 c 0,-0.6 -0.123,-1.019 -0.366,-1.255 -0.247,-0.236 -0.572,-0.354 -0.977,-0.354 -0.325,0 -0.617,0.058 -0.882,0.172 a 2.605,2.605 0 0 0 -0.694,0.429 v 6.888 h -3.28 v -9.806 l 3.28,-0.408 -0.018,1.395 c 0.44,-0.458 0.91,-0.82 1.41,-1.084 0.505,-0.264 1.08,-0.397 1.728,-0.397 0.625,0 1.182,0.15 1.68,0.451 0.493,0.3 0.86,0.744 1.1,1.33 a 5.568,5.568 0 0 1 1.537,-1.298 3.753,3.753 0 0 1 1.873,-0.483 c 0.958,0 1.71,0.308 2.253,0.923 0.543,0.615 0.814,1.46 0.814,2.532 v 6.845 h -3.28 z M 35.132,75.515 v -0.192 c 0,-0.602 -0.123,-1.07 -0.37,-1.406 -0.247,-0.336 -0.624,-0.504 -1.132,-0.504 -0.564,0 -1.009,0.21 -1.333,0.633 a 2.85,2.85 0 0 0 -0.571,1.491 z m -3.428,1.717 c 0.057,0.672 0.303,1.19 0.74,1.556 0.438,0.364 1.059,0.547 1.863,0.547 0.536,0 1.082,-0.09 1.64,-0.268 a 8.023,8.023 0 0 0 1.576,-0.698 l 0.317,2.554 c -0.493,0.257 -1.075,0.457 -1.745,0.6 a 9.952,9.952 0 0 1 -2.084,0.215 c -0.833,0 -1.587,-0.115 -2.265,-0.343 a 4.763,4.763 0 0 1 -1.734,-1.009 c -0.48,-0.443 -0.85,-0.99 -1.111,-1.641 -0.261,-0.651 -0.392,-1.392 -0.392,-2.221 0,-0.815 0.13,-1.556 0.392,-2.22 a 4.801,4.801 0 0 1 1.1,-1.696 4.97,4.97 0 0 1 1.693,-1.084 5.826,5.826 0 0 1 2.147,-0.386 c 1.397,0 2.465,0.386 3.206,1.16 0.74,0.771 1.11,1.78 1.11,3.025 0,0.271 -0.017,0.579 -0.052,0.922 a 4.1,4.1 0 0 1 -0.159,0.837 l -6.242,0.107 z m -11.32,-3.283 4.402,-5.922 h 3.85 l -5.226,6.544 5.353,6.867 h -4.02 l -4.358,-5.9 h -0.022 v 5.9 H 17 v -13.41 h 3.364 v 5.921 h 0.022 z"
       id="path8" />
    <path
       fill="#000000"
       d="m 142.35,96.62 v -7.663 h 0.788 v 6.928 H 147 v 0.736 h -4.65 z m -4.586,-6.878 -1.5,3.985 h 2.987 z m 3.4,6.879 h -0.813 l -0.825,-2.195 h -3.537 l -0.825,2.195 h -0.812 l 2.962,-7.664 h 0.937 z m -8.799,-7.664 h 0.787 v 7.737 h -0.875 l -4.449,-6.633 v 6.56 h -0.788 v -7.664 h 0.899 l 4.426,6.572 z m -7.724,3.85 c 0,-0.49 -0.075,-0.94 -0.225,-1.348 a 3.062,3.062 0 0 0 -0.631,-1.049 2.813,2.813 0 0 0 -0.969,-0.674 3.103,3.103 0 0 0 -1.225,-0.239 c -0.433,0 -0.835,0.08 -1.206,0.239 -0.37,0.16 -0.69,0.382 -0.956,0.668 a 3.07,3.07 0 0 0 -0.625,1.03 c -0.15,0.4 -0.225,0.842 -0.225,1.324 0,0.49 0.077,0.94 0.231,1.349 0.155,0.408 0.367,0.76 0.638,1.055 0.27,0.294 0.593,0.52 0.969,0.68 0.375,0.16 0.783,0.239 1.224,0.239 0.434,0 0.834,-0.08 1.2,-0.239 0.367,-0.16 0.683,-0.384 0.95,-0.675 a 3.14,3.14 0 0 0 0.625,-1.035 c 0.15,-0.4 0.225,-0.842 0.225,-1.325 z m 0.812,-0.049 c 0,0.589 -0.096,1.128 -0.287,1.619 -0.192,0.49 -0.459,0.913 -0.8,1.269 a 3.645,3.645 0 0 1 -1.219,0.833 c -0.47,0.201 -0.985,0.301 -1.543,0.301 a 3.934,3.934 0 0 1 -1.512,-0.288 3.663,3.663 0 0 1 -1.219,-0.81 3.696,3.696 0 0 1 -0.812,-1.256 4.319,4.319 0 0 1 -0.294,-1.619 c 0,-0.588 0.096,-1.128 0.287,-1.618 0.192,-0.49 0.459,-0.913 0.8,-1.27 a 3.58,3.58 0 0 1 1.219,-0.827 3.97,3.97 0 0 1 1.543,-0.294 c 0.542,0 1.048,0.096 1.519,0.288 0.47,0.192 0.877,0.462 1.218,0.81 0.342,0.347 0.61,0.764 0.806,1.25 0.196,0.486 0.294,1.024 0.294,1.612 z m -10.098,3.863 v -7.664 h 0.787 v 7.664 z m -4.075,-6.928 v 6.928 h -0.787 v -6.928 h -2.75 v -0.736 h 6.287 v 0.736 z m -6.786,0.05 -1.5,3.984 h 2.987 l -1.487,-3.985 z m 3.4,6.878 h -0.813 l -0.825,-2.195 h -3.537 l -0.825,2.195 h -0.812 l 2.962,-7.664 h 0.937 z m -8.799,-7.664 h 0.787 v 7.737 h -0.875 l -4.449,-6.633 v 6.56 H 93.77 v -7.664 h 0.899 l 4.426,6.572 z m -9.738,3.838 c 0.26,-0.008 0.508,-0.049 0.743,-0.122 0.236,-0.074 0.442,-0.178 0.623,-0.313 0.181,-0.135 0.323,-0.3 0.427,-0.497 a 1.39,1.39 0 0 0 0.158,-0.674 c 0,-0.507 -0.185,-0.89 -0.554,-1.147 -0.368,-0.257 -0.898,-0.386 -1.587,-0.386 h -1.22 v 3.188 z m -1.41,3.826 h -0.788 v -7.664 h 2.1 c 0.966,0 1.68,0.2 2.143,0.601 0.463,0.4 0.694,0.936 0.694,1.606 a 2.032,2.032 0 0 1 -0.532,1.398 2.33,2.33 0 0 1 -0.574,0.46 c -0.221,0.127 -0.457,0.227 -0.707,0.3 l 2.163,3.299 h -0.925 l -2.004,-3.164 -1.57,0.098 z m -7.125,0 v -7.664 h 4.712 v 0.724 H 81.61 v 2.758 h 3.274 v 0.7 H 81.61 v 2.758 h 3.924 v 0.724 z m -4.049,-6.928 v 6.928 h -0.787 v -6.928 h -2.75 v -0.736 h 6.287 v 0.736 z m -5.624,-0.736 h 0.787 v 7.737 h -0.875 l -4.449,-6.633 v 6.56 h -0.788 v -7.664 h 0.899 l 4.426,6.572 z M 63,96.621 v -7.664 h 0.787 v 7.664 z m 41.239,4.047 v 6.928 h -0.792 v -6.928 h -2.76 V 99.932 H 107 v 0.736 z m -7.082,3.102 c 0.261,-0.008 0.51,-0.049 0.746,-0.122 0.237,-0.074 0.444,-0.178 0.626,-0.313 0.182,-0.135 0.324,-0.3 0.429,-0.497 0.107,-0.196 0.159,-0.42 0.159,-0.674 0,-0.507 -0.186,-0.89 -0.557,-1.146 -0.37,-0.258 -0.901,-0.387 -1.594,-0.387 h -1.225 v 3.188 z m -1.416,3.826 h -0.792 v -7.664 h 2.11 c 0.97,0 1.687,0.2 2.152,0.601 0.465,0.4 0.697,0.936 0.697,1.606 a 2.021,2.021 0 0 1 -0.534,1.398 2.34,2.34 0 0 1 -0.577,0.46 3.302,3.302 0 0 1 -0.71,0.3 l 2.172,3.299 H 99.33 l -2.012,-3.164 -1.577,0.098 z m -3.201,-3.813 c 0,-0.491 -0.076,-0.94 -0.226,-1.35 a 3.065,3.065 0 0 0 -0.634,-1.047 2.827,2.827 0 0 0 -0.973,-0.675 3.127,3.127 0 0 0 -1.23,-0.239 c -0.436,0 -0.84,0.08 -1.211,0.239 -0.373,0.16 -0.693,0.382 -0.96,0.668 -0.269,0.286 -0.478,0.63 -0.628,1.03 -0.151,0.4 -0.226,0.842 -0.226,1.324 0,0.49 0.077,0.94 0.232,1.349 0.155,0.409 0.368,0.76 0.64,1.055 0.272,0.294 0.596,0.52 0.973,0.68 0.377,0.16 0.787,0.239 1.23,0.239 0.435,0 0.837,-0.08 1.205,-0.239 a 2.79,2.79 0 0 0 0.954,-0.675 c 0.268,-0.29 0.477,-0.635 0.628,-1.035 0.15,-0.4 0.226,-0.842 0.226,-1.324 z m 0.815,-0.05 c 0,0.589 -0.096,1.128 -0.288,1.619 -0.193,0.49 -0.46,0.913 -0.804,1.269 a 3.663,3.663 0 0 1 -1.224,0.833 c -0.472,0.201 -0.99,0.301 -1.55,0.301 -0.544,0 -1.05,-0.096 -1.518,-0.288 a 3.681,3.681 0 0 1 -1.224,-0.81 3.692,3.692 0 0 1 -0.816,-1.256 4.302,4.302 0 0 1 -0.295,-1.618 c 0,-0.589 0.096,-1.129 0.289,-1.619 0.192,-0.49 0.46,-0.913 0.803,-1.27 0.343,-0.355 0.75,-0.63 1.224,-0.827 0.472,-0.196 0.99,-0.294 1.55,-0.294 0.544,0 1.052,0.096 1.525,0.288 0.473,0.192 0.88,0.462 1.224,0.81 0.343,0.347 0.613,0.764 0.81,1.25 0.196,0.487 0.294,1.024 0.294,1.612 z M 83.74,102.36 c 0,-0.548 -0.192,-0.969 -0.579,-1.263 -0.387,-0.294 -0.95,-0.441 -1.688,-0.441 h -1.147 v 3.519 l 1.122,-0.025 c 0.746,-0.016 1.316,-0.17 1.707,-0.46 0.39,-0.29 0.585,-0.733 0.585,-1.33 z m 0.829,-0.037 c 0,0.842 -0.283,1.476 -0.85,1.9 -0.566,0.426 -1.34,0.647 -2.322,0.663 l -1.07,0.012 v 2.698 h -0.792 v -7.664 h 1.971 c 0.519,0 0.971,0.06 1.356,0.178 0.385,0.119 0.703,0.282 0.954,0.49 0.251,0.209 0.44,0.46 0.565,0.755 0.125,0.294 0.188,0.617 0.188,0.968 z m -9.466,1.447 c 0.261,-0.008 0.51,-0.049 0.746,-0.122 0.237,-0.074 0.444,-0.178 0.626,-0.313 0.182,-0.135 0.324,-0.3 0.429,-0.497 0.107,-0.196 0.159,-0.42 0.159,-0.674 0,-0.507 -0.187,-0.89 -0.557,-1.146 -0.37,-0.258 -0.901,-0.387 -1.594,-0.387 h -1.226 v 3.188 z m -1.417,3.826 h -0.79 v -7.664 h 2.108 c 0.97,0 1.688,0.2 2.153,0.601 0.464,0.4 0.697,0.936 0.697,1.606 a 2.025,2.025 0 0 1 -0.534,1.398 2.34,2.34 0 0 1 -0.577,0.46 3.304,3.304 0 0 1 -0.71,0.3 l 2.172,3.299 h -0.929 l -2.012,-3.164 -1.578,0.098 z m -3.627,0 v -7.664 h 0.79 v 7.664 z m -4.632,-6.879 -1.506,3.985 h 3 z m 3.414,6.879 h -0.816 l -0.828,-2.195 h -3.553 l -0.828,2.195 H 62 l 2.975,-7.664 h 0.941 z M 125,116.638 c 0,0.474 -0.062,0.901 -0.186,1.281 -0.125,0.38 -0.311,0.705 -0.56,0.975 -0.248,0.27 -0.555,0.476 -0.919,0.62 -0.365,0.142 -0.791,0.214 -1.28,0.214 -0.464,0 -0.876,-0.07 -1.237,-0.209 a 2.503,2.503 0 0 1 -0.913,-0.594 2.528,2.528 0 0 1 -0.566,-0.938 3.698,3.698 0 0 1 -0.192,-1.226 v -4.856 h 0.783 v 4.758 c 0,0.735 0.18,1.31 0.538,1.722 0.36,0.413 0.903,0.62 1.63,0.62 0.694,0 1.22,-0.2 1.58,-0.602 0.359,-0.4 0.54,-0.985 0.54,-1.753 v -4.745 H 125 Z m -10.155,-0.895 a 2.74,2.74 0 0 0 0.74,-0.123 c 0.233,-0.073 0.438,-0.177 0.619,-0.312 0.18,-0.135 0.32,-0.3 0.424,-0.497 0.106,-0.196 0.158,-0.42 0.158,-0.674 0,-0.507 -0.185,-0.89 -0.551,-1.147 -0.367,-0.257 -0.893,-0.386 -1.579,-0.386 h -1.213 v 3.188 l 1.402,-0.05 z m -1.402,3.825 h -0.783 v -7.663 h 2.088 c 0.96,0 1.67,0.2 2.13,0.601 0.46,0.4 0.69,0.936 0.69,1.606 a 2.042,2.042 0 0 1 -0.528,1.398 2.32,2.32 0 0 1 -0.571,0.46 c -0.22,0.126 -0.454,0.226 -0.702,0.3 l 2.15,3.298 h -0.92 l -1.993,-3.163 -1.561,0.098 z m -2.672,-2.93 c 0,0.474 -0.063,0.901 -0.187,1.281 -0.124,0.38 -0.31,0.705 -0.559,0.975 -0.248,0.27 -0.555,0.476 -0.92,0.62 -0.364,0.142 -0.79,0.214 -1.28,0.214 a 3.42,3.42 0 0 1 -1.236,-0.209 2.503,2.503 0 0 1 -0.913,-0.594 2.528,2.528 0 0 1 -0.566,-0.938 3.701,3.701 0 0 1 -0.193,-1.226 v -4.856 h 0.783 v 4.758 c 0,0.735 0.18,1.31 0.539,1.722 0.36,0.413 0.903,0.62 1.63,0.62 0.694,0 1.22,-0.2 1.58,-0.602 0.358,-0.4 0.539,-0.985 0.539,-1.753 v -4.745 h 0.783 z m -11.52,2.93 v -7.663 h 0.782 v 6.928 h 3.84 v 0.735 H 99.25 Z m -4.561,-6.878 -1.491,3.985 h 2.97 l -1.48,-3.985 z m 3.38,6.878 h -0.808 l -0.82,-2.195 h -3.517 l -0.82,2.195 h -0.808 l 2.945,-7.663 h 0.932 z m -7.867,-0.598 a 4.32,4.32 0 0 1 -1.273,0.568 5.24,5.24 0 0 1 -1.374,0.19 4.015,4.015 0 0 1 -1.534,-0.282 3.428,3.428 0 0 1 -1.187,-0.797 3.487,3.487 0 0 1 -0.764,-1.25 4.778,4.778 0 0 1 -0.268,-1.644 c 0,-0.613 0.094,-1.165 0.28,-1.655 0.186,-0.49 0.447,-0.911 0.783,-1.263 0.335,-0.351 0.73,-0.621 1.187,-0.809 a 3.904,3.904 0 0 1 1.503,-0.282 c 0.48,0 0.938,0.061 1.374,0.186 0.434,0.125 0.797,0.272 1.087,0.441 l -0.26,0.71 a 4.014,4.014 0 0 0 -1.02,-0.46 4.078,4.078 0 0 0 -1.193,-0.178 c -0.423,0 -0.812,0.073 -1.168,0.22 -0.357,0.15 -0.665,0.362 -0.926,0.642 -0.261,0.278 -0.466,0.621 -0.615,1.026 a 4.052,4.052 0 0 0 -0.224,1.398 c 0,0.508 0.07,0.966 0.211,1.37 0.141,0.407 0.34,0.755 0.6,1.04 0.262,0.289 0.57,0.508 0.931,0.66 a 3.08,3.08 0 0 0 1.207,0.228 3.747,3.747 0 0 0 1.86,-0.468 v -2.095 h -2.249 v -0.699 h 3.032 z m -8.773,-7.065 h 0.782 v 7.737 h -0.87 l -4.423,-6.633 v 6.56 h -0.784 v -7.664 h 0.893 l 4.402,6.572 z m -11.595,7.663 v -7.663 h 4.685 v 0.724 h -3.902 v 2.758 h 3.256 v 0.7 h -3.256 v 2.758 h 3.902 v 0.723 z m -2.324,-2.127 c 0,-0.452 -0.182,-0.79 -0.546,-1.015 -0.365,-0.227 -0.895,-0.34 -1.591,-0.34 h -1.59 v 2.784 h 1.789 c 0.687,0 1.182,-0.127 1.485,-0.383 0.302,-0.253 0.453,-0.602 0.453,-1.046 z m -0.236,-3.476 c 0,-0.421 -0.147,-0.752 -0.443,-0.995 -0.294,-0.243 -0.754,-0.366 -1.377,-0.366 h -1.672 v 2.783 h 1.547 c 0.59,0 1.063,-0.122 1.415,-0.365 0.354,-0.243 0.53,-0.595 0.53,-1.057 z m -0.712,1.688 c 0.57,0.114 1,0.327 1.292,0.642 0.292,0.314 0.44,0.694 0.44,1.144 0,0.31 -0.055,0.594 -0.162,0.856 a 1.704,1.704 0 0 1 -0.5,0.675 2.495,2.495 0 0 1 -0.867,0.439 c -0.35,0.106 -0.769,0.16 -1.256,0.16 H 63 v -7.664 h 2.417 c 0.464,0 0.862,0.05 1.197,0.147 0.334,0.098 0.61,0.238 0.825,0.42 0.215,0.18 0.37,0.39 0.47,0.63 0.1,0.242 0.15,0.512 0.15,0.806 0,0.376 -0.119,0.73 -0.355,1.056 -0.238,0.327 -0.617,0.558 -1.141,0.689 z"
       id="path9" />
  </g>
</svg>
